<svg width="560" height="560" viewBox="0 0 560 560" fill="none" xmlns="http://www.w3.org/2000/svg">
<rect x="12" y="12" width="536" height="536" rx="268" stroke="#008D28" stroke-width="24"/>
<path d="M446.4 134.4C446.4 204.665 396.61 263.295 330.44 277.01C325.305 239.245 308.34 205.25 283.315 178.925C309.38 139.6 354.035 113.6 404.8 113.6H425.6C437.105 113.6 446.4 122.895 446.4 134.4ZM113.6 176C113.6 164.495 122.895 155.2 134.4 155.2H155.2C235.605 155.2 300.8 220.395 300.8 300.8V425.6C300.8 437.105 291.505 446.4 280 446.4C268.495 446.4 259.2 437.105 259.2 425.6V321.6C178.795 321.6 113.6 256.405 113.6 176Z" fill="#008D28"/>
</svg>
