<svg width="532" height="532" viewBox="0 0 532 532" fill="none" xmlns="http://www.w3.org/2000/svg">
<rect x="5" y="5" width="522" height="522" rx="261" stroke="#008D28" stroke-width="10"/>
<path d="M432.4 120.4C432.4 190.665 382.61 249.295 316.44 263.01C311.305 225.245 294.34 191.25 269.315 164.925C295.38 125.6 340.035 99.6 390.8 99.6H411.6C423.105 99.6 432.4 108.895 432.4 120.4ZM99.6 162C99.6 150.495 108.895 141.2 120.4 141.2H141.2C221.605 141.2 286.8 206.395 286.8 286.8V411.6C286.8 423.105 277.505 432.4 266 432.4C254.495 432.4 245.2 423.105 245.2 411.6V307.6C164.795 307.6 99.6 242.405 99.6 162Z" fill="#008D28"/>
</svg>
